<mxfile host="65bd71144e">
    <diagram id="slFzv_wwJpsepxm8wFll" name="Page-1">
        <mxGraphModel dx="1074" dy="753" grid="1" gridSize="10" guides="1" tooltips="1" connect="1" arrows="1" fold="1" page="1" pageScale="1" pageWidth="827" pageHeight="1169" math="0" shadow="0">
            <root>
                <mxCell id="0"/>
                <mxCell id="1" parent="0"/>
                <mxCell id="2" value="Frame" parent="0"/>
                <mxCell id="3" value="" style="shape=table;startSize=0;container=1;collapsible=0;childLayout=tableLayout;fontFamily=Times New Roman;fontSize=12;opacity=20;align=center;whiteSpace=wrap;html=1;" vertex="1" parent="2">
                    <mxGeometry x="40" y="80" width="760" height="200" as="geometry"/>
                </mxCell>
                <mxCell id="4" value="" style="shape=partialRectangle;collapsible=0;dropTarget=0;pointerEvents=0;fillColor=none;top=0;left=0;bottom=0;right=0;points=[[0,0.5],[1,0.5]];portConstraint=eastwest;" vertex="1" parent="3">
                    <mxGeometry width="760" height="40" as="geometry"/>
                </mxCell>
                <mxCell id="144" value="Ordre" style="shape=partialRectangle;connectable=0;overflow=hidden;fillColor=#f5f5f5;top=0;left=0;bottom=0;right=0;pointerEvents=1;strokeColor=#666666;fontFamily=Times New Roman;fontSize=12;fontStyle=1;fontColor=#333333;whiteSpace=wrap;html=1;" vertex="1" parent="4">
                    <mxGeometry width="40" height="40" as="geometry">
                        <mxRectangle width="40" height="40" as="alternateBounds"/>
                    </mxGeometry>
                </mxCell>
                <mxCell id="5" value="Contexte" style="shape=partialRectangle;connectable=0;overflow=hidden;fillColor=#f5f5f5;top=0;left=0;bottom=0;right=0;pointerEvents=1;strokeColor=#666666;fontFamily=Times New Roman;fontSize=16;fontStyle=1;fontColor=#333333;" vertex="1" parent="4">
                    <mxGeometry x="40" width="240" height="40" as="geometry">
                        <mxRectangle width="240" height="40" as="alternateBounds"/>
                    </mxGeometry>
                </mxCell>
                <mxCell id="6" value="Condition" style="shape=partialRectangle;connectable=0;overflow=hidden;fillColor=#f5f5f5;top=0;left=0;bottom=0;right=0;pointerEvents=1;fontFamily=Times New Roman;fontSize=16;fontStyle=1;strokeColor=#666666;fontColor=#333333;" vertex="1" parent="4">
                    <mxGeometry x="280" width="230" height="40" as="geometry">
                        <mxRectangle width="230" height="40" as="alternateBounds"/>
                    </mxGeometry>
                </mxCell>
                <mxCell id="7" value="Resultat" style="shape=partialRectangle;connectable=0;overflow=hidden;fillColor=#f5f5f5;top=0;left=0;bottom=0;right=0;pointerEvents=1;fontFamily=Times New Roman;fontSize=16;fontStyle=1;strokeColor=#666666;fontColor=#333333;" vertex="1" parent="4">
                    <mxGeometry x="510" width="250" height="40" as="geometry">
                        <mxRectangle width="250" height="40" as="alternateBounds"/>
                    </mxGeometry>
                </mxCell>
                <mxCell id="8" style="shape=partialRectangle;collapsible=0;dropTarget=0;pointerEvents=0;fillColor=none;top=0;left=0;bottom=0;right=0;points=[[0,0.5],[1,0.5]];portConstraint=eastwest;" vertex="1" parent="3">
                    <mxGeometry y="40" width="760" height="40" as="geometry"/>
                </mxCell>
                <mxCell id="145" value="1" style="shape=partialRectangle;connectable=0;overflow=hidden;fillColor=#f5f5f5;top=0;left=0;bottom=0;right=0;pointerEvents=1;strokeColor=#666666;opacity=50;fontFamily=Times New Roman;fontSize=14;align=center;spacingLeft=0;fontColor=#333333;whiteSpace=wrap;html=1;" vertex="1" parent="8">
                    <mxGeometry width="40" height="40" as="geometry">
                        <mxRectangle width="40" height="40" as="alternateBounds"/>
                    </mxGeometry>
                </mxCell>
                <mxCell id="9" value="J&amp;#39;ouvre le Jeu" style="shape=partialRectangle;connectable=0;overflow=hidden;fillColor=#f5f5f5;top=0;left=0;bottom=0;right=0;pointerEvents=1;strokeColor=#666666;opacity=50;fontFamily=Times New Roman;fontSize=14;align=left;spacingLeft=4;fontColor=#333333;whiteSpace=wrap;html=1;" vertex="1" parent="8">
                    <mxGeometry x="40" width="240" height="40" as="geometry">
                        <mxRectangle width="240" height="40" as="alternateBounds"/>
                    </mxGeometry>
                </mxCell>
                <mxCell id="10" style="shape=partialRectangle;html=1;whiteSpace=wrap;connectable=0;overflow=hidden;fillColor=#f5f5f5;top=0;left=0;bottom=0;right=0;pointerEvents=1;fontFamily=Times New Roman;fontSize=12;strokeColor=#666666;opacity=50;align=left;spacingLeft=4;fontColor=#333333;" vertex="1" parent="8">
                    <mxGeometry x="280" width="230" height="40" as="geometry">
                        <mxRectangle width="230" height="40" as="alternateBounds"/>
                    </mxGeometry>
                </mxCell>
                <mxCell id="11" value="Le Menu et et ses composantes apparaissent" style="shape=partialRectangle;connectable=0;overflow=hidden;fillColor=#f5f5f5;top=0;left=0;bottom=0;right=0;pointerEvents=1;fontFamily=Times New Roman;fontSize=14;strokeColor=#666666;opacity=50;align=left;spacingLeft=4;fontColor=#333333;whiteSpace=wrap;html=1;" vertex="1" parent="8">
                    <mxGeometry x="510" width="250" height="40" as="geometry">
                        <mxRectangle width="250" height="40" as="alternateBounds"/>
                    </mxGeometry>
                </mxCell>
                <mxCell id="12" style="shape=partialRectangle;collapsible=0;dropTarget=0;pointerEvents=0;fillColor=none;top=0;left=0;bottom=0;right=0;points=[[0,0.5],[1,0.5]];portConstraint=eastwest;" vertex="1" parent="3">
                    <mxGeometry y="80" width="760" height="40" as="geometry"/>
                </mxCell>
                <mxCell id="146" value="2" style="shape=partialRectangle;connectable=0;overflow=hidden;fillColor=#f5f5f5;top=0;left=0;bottom=0;right=0;pointerEvents=1;strokeColor=#666666;opacity=50;fontFamily=Times New Roman;fontSize=14;align=center;spacingLeft=0;fontColor=#333333;whiteSpace=wrap;html=1;" vertex="1" parent="12">
                    <mxGeometry width="40" height="40" as="geometry">
                        <mxRectangle width="40" height="40" as="alternateBounds"/>
                    </mxGeometry>
                </mxCell>
                <mxCell id="13" value="J&amp;#39;appuye sur le bouton &amp;quot;Nouvelle Partie&amp;quot;" style="shape=partialRectangle;connectable=0;overflow=hidden;fillColor=#f5f5f5;top=0;left=0;bottom=0;right=0;pointerEvents=1;strokeColor=#666666;opacity=50;fontFamily=Times New Roman;fontSize=14;align=left;spacingLeft=4;fontColor=#333333;whiteSpace=wrap;html=1;" vertex="1" parent="12">
                    <mxGeometry x="40" width="240" height="40" as="geometry">
                        <mxRectangle width="240" height="40" as="alternateBounds"/>
                    </mxGeometry>
                </mxCell>
                <mxCell id="14" style="shape=partialRectangle;html=1;whiteSpace=wrap;connectable=0;overflow=hidden;fillColor=#f5f5f5;top=0;left=0;bottom=0;right=0;pointerEvents=1;fontFamily=Times New Roman;fontSize=12;strokeColor=#666666;opacity=50;align=left;spacingLeft=4;fontColor=#333333;" vertex="1" parent="12">
                    <mxGeometry x="280" width="230" height="40" as="geometry">
                        <mxRectangle width="230" height="40" as="alternateBounds"/>
                    </mxGeometry>
                </mxCell>
                <mxCell id="15" value="La barre de chargement apparaît" style="shape=partialRectangle;connectable=0;overflow=hidden;fillColor=#f5f5f5;top=0;left=0;bottom=0;right=0;pointerEvents=1;fontFamily=Times New Roman;fontSize=14;strokeColor=#666666;opacity=50;align=left;spacingLeft=4;fontColor=#333333;whiteSpace=wrap;html=1;" vertex="1" parent="12">
                    <mxGeometry x="510" width="250" height="40" as="geometry">
                        <mxRectangle width="250" height="40" as="alternateBounds"/>
                    </mxGeometry>
                </mxCell>
                <mxCell id="16" style="shape=partialRectangle;collapsible=0;dropTarget=0;pointerEvents=0;fillColor=none;top=0;left=0;bottom=0;right=0;points=[[0,0.5],[1,0.5]];portConstraint=eastwest;" vertex="1" parent="3">
                    <mxGeometry y="120" width="760" height="40" as="geometry"/>
                </mxCell>
                <mxCell id="147" value="3" style="shape=partialRectangle;connectable=0;overflow=hidden;fillColor=#f5f5f5;top=0;left=0;bottom=0;right=0;pointerEvents=1;strokeColor=#666666;opacity=50;fontFamily=Times New Roman;fontSize=14;align=center;spacingLeft=0;fontColor=#333333;whiteSpace=wrap;html=1;" vertex="1" parent="16">
                    <mxGeometry width="40" height="40" as="geometry">
                        <mxRectangle width="40" height="40" as="alternateBounds"/>
                    </mxGeometry>
                </mxCell>
                <mxCell id="17" value="La barre de chargement est complète" style="shape=partialRectangle;connectable=0;overflow=hidden;fillColor=#f5f5f5;top=0;left=0;bottom=0;right=0;pointerEvents=1;strokeColor=#666666;opacity=50;fontFamily=Times New Roman;fontSize=14;align=left;spacingLeft=4;fontColor=#333333;whiteSpace=wrap;html=1;" vertex="1" parent="16">
                    <mxGeometry x="40" width="240" height="40" as="geometry">
                        <mxRectangle width="240" height="40" as="alternateBounds"/>
                    </mxGeometry>
                </mxCell>
                <mxCell id="18" style="shape=partialRectangle;html=1;whiteSpace=wrap;connectable=0;overflow=hidden;fillColor=#f5f5f5;top=0;left=0;bottom=0;right=0;pointerEvents=1;fontFamily=Times New Roman;fontSize=12;strokeColor=#666666;opacity=50;align=left;spacingLeft=4;fontColor=#333333;" vertex="1" parent="16">
                    <mxGeometry x="280" width="230" height="40" as="geometry">
                        <mxRectangle width="230" height="40" as="alternateBounds"/>
                    </mxGeometry>
                </mxCell>
                <mxCell id="19" value="la scène de jeu est chargée" style="shape=partialRectangle;connectable=0;overflow=hidden;fillColor=#f5f5f5;top=0;left=0;bottom=0;right=0;pointerEvents=1;fontFamily=Times New Roman;fontSize=14;strokeColor=#666666;opacity=50;align=left;spacingLeft=4;fontColor=#333333;whiteSpace=wrap;html=1;" vertex="1" parent="16">
                    <mxGeometry x="510" width="250" height="40" as="geometry">
                        <mxRectangle width="250" height="40" as="alternateBounds"/>
                    </mxGeometry>
                </mxCell>
                <mxCell id="20" style="shape=partialRectangle;collapsible=0;dropTarget=0;pointerEvents=0;fillColor=none;top=0;left=0;bottom=0;right=0;points=[[0,0.5],[1,0.5]];portConstraint=eastwest;" vertex="1" parent="3">
                    <mxGeometry y="160" width="760" height="40" as="geometry"/>
                </mxCell>
                <mxCell id="148" value="4" style="shape=partialRectangle;connectable=0;overflow=hidden;fillColor=#f5f5f5;top=0;left=0;bottom=0;right=0;pointerEvents=1;strokeColor=#666666;opacity=50;fontFamily=Times New Roman;fontSize=14;align=center;spacingLeft=0;fontColor=#333333;whiteSpace=wrap;html=1;" vertex="1" parent="20">
                    <mxGeometry width="40" height="40" as="geometry">
                        <mxRectangle width="40" height="40" as="alternateBounds"/>
                    </mxGeometry>
                </mxCell>
                <mxCell id="21" value="J&amp;#39;appuye sur &amp;quot;Quitter&amp;quot;" style="shape=partialRectangle;connectable=0;overflow=hidden;fillColor=#f5f5f5;top=0;left=0;bottom=0;right=0;pointerEvents=1;strokeColor=#666666;opacity=50;fontFamily=Times New Roman;fontSize=14;align=left;spacingLeft=4;fontColor=#333333;whiteSpace=wrap;html=1;" vertex="1" parent="20">
                    <mxGeometry x="40" width="240" height="40" as="geometry">
                        <mxRectangle width="240" height="40" as="alternateBounds"/>
                    </mxGeometry>
                </mxCell>
                <mxCell id="22" style="shape=partialRectangle;html=1;whiteSpace=wrap;connectable=0;overflow=hidden;fillColor=#f5f5f5;top=0;left=0;bottom=0;right=0;pointerEvents=1;fontFamily=Times New Roman;fontSize=12;strokeColor=#666666;opacity=50;align=left;spacingLeft=4;fontColor=#333333;" vertex="1" parent="20">
                    <mxGeometry x="280" width="230" height="40" as="geometry">
                        <mxRectangle width="230" height="40" as="alternateBounds"/>
                    </mxGeometry>
                </mxCell>
                <mxCell id="23" value="Le jeu se ferme" style="shape=partialRectangle;connectable=0;overflow=hidden;fillColor=#f5f5f5;top=0;left=0;bottom=0;right=0;pointerEvents=1;fontFamily=Times New Roman;fontSize=14;strokeColor=#666666;opacity=50;align=left;spacingLeft=4;fontColor=#333333;whiteSpace=wrap;html=1;" vertex="1" parent="20">
                    <mxGeometry x="510" width="250" height="40" as="geometry">
                        <mxRectangle width="250" height="40" as="alternateBounds"/>
                    </mxGeometry>
                </mxCell>
                <mxCell id="40" value="Tests d&amp;#39;Acceptations : Menu Principal" style="rounded=0;fontFamily=Times New Roman;fontSize=24;fontStyle=1;labelBorderColor=none;labelBackgroundColor=none;fillColor=#eeeeee;strokeColor=#36393d;verticalAlign=middle;whiteSpace=wrap;html=1;" vertex="1" parent="2">
                    <mxGeometry x="40" y="40" width="760" height="40" as="geometry"/>
                </mxCell>
                <mxCell id="41" value="" style="shape=table;startSize=0;container=1;collapsible=0;childLayout=tableLayout;fontFamily=Times New Roman;fontSize=12;opacity=20;align=center;whiteSpace=wrap;html=1;" vertex="1" parent="2">
                    <mxGeometry x="40" y="360" width="760" height="240" as="geometry"/>
                </mxCell>
                <mxCell id="42" value="" style="shape=partialRectangle;collapsible=0;dropTarget=0;pointerEvents=0;fillColor=none;top=0;left=0;bottom=0;right=0;points=[[0,0.5],[1,0.5]];portConstraint=eastwest;" vertex="1" parent="41">
                    <mxGeometry width="760" height="40" as="geometry"/>
                </mxCell>
                <mxCell id="126" value="Ordre" style="shape=partialRectangle;connectable=0;overflow=hidden;fillColor=#f5f5f5;top=0;left=0;bottom=0;right=0;pointerEvents=1;strokeColor=#666666;fontFamily=Times New Roman;fontSize=12;fontStyle=1;fontColor=#333333;whiteSpace=wrap;html=1;" vertex="1" parent="42">
                    <mxGeometry width="40" height="40" as="geometry">
                        <mxRectangle width="40" height="40" as="alternateBounds"/>
                    </mxGeometry>
                </mxCell>
                <mxCell id="43" value="Contexte" style="shape=partialRectangle;connectable=0;overflow=hidden;fillColor=#f5f5f5;top=0;left=0;bottom=0;right=0;pointerEvents=1;strokeColor=#666666;fontFamily=Times New Roman;fontSize=16;fontStyle=1;fontColor=#333333;whiteSpace=wrap;html=1;" vertex="1" parent="42">
                    <mxGeometry x="40" width="240" height="40" as="geometry">
                        <mxRectangle width="240" height="40" as="alternateBounds"/>
                    </mxGeometry>
                </mxCell>
                <mxCell id="44" value="Condition(s)" style="shape=partialRectangle;connectable=0;overflow=hidden;fillColor=#f5f5f5;top=0;left=0;bottom=0;right=0;pointerEvents=1;fontFamily=Times New Roman;fontSize=16;fontStyle=1;strokeColor=#666666;fontColor=#333333;whiteSpace=wrap;html=1;" vertex="1" parent="42">
                    <mxGeometry x="280" width="280" height="40" as="geometry">
                        <mxRectangle width="280" height="40" as="alternateBounds"/>
                    </mxGeometry>
                </mxCell>
                <mxCell id="45" value="Resultat" style="shape=partialRectangle;connectable=0;overflow=hidden;fillColor=#f5f5f5;top=0;left=0;bottom=0;right=0;pointerEvents=1;fontFamily=Times New Roman;fontSize=16;fontStyle=1;strokeColor=#666666;fontColor=#333333;whiteSpace=wrap;html=1;" vertex="1" parent="42">
                    <mxGeometry x="560" width="200" height="40" as="geometry">
                        <mxRectangle width="200" height="40" as="alternateBounds"/>
                    </mxGeometry>
                </mxCell>
                <mxCell id="46" style="shape=partialRectangle;collapsible=0;dropTarget=0;pointerEvents=0;fillColor=none;top=0;left=0;bottom=0;right=0;points=[[0,0.5],[1,0.5]];portConstraint=eastwest;" vertex="1" parent="41">
                    <mxGeometry y="40" width="760" height="40" as="geometry"/>
                </mxCell>
                <mxCell id="127" value="1" style="shape=partialRectangle;connectable=0;overflow=hidden;fillColor=#f5f5f5;top=0;left=0;bottom=0;right=0;pointerEvents=1;strokeColor=#666666;opacity=50;fontFamily=Times New Roman;fontSize=14;align=center;spacingLeft=0;fontColor=#333333;fontStyle=0;whiteSpace=wrap;html=1;" vertex="1" parent="46">
                    <mxGeometry width="40" height="40" as="geometry">
                        <mxRectangle width="40" height="40" as="alternateBounds"/>
                    </mxGeometry>
                </mxCell>
                <mxCell id="47" value="Le curseur passe au dessus d'une unité" style="shape=partialRectangle;connectable=0;overflow=hidden;fillColor=#f5f5f5;top=0;left=0;bottom=0;right=0;pointerEvents=1;strokeColor=#666666;opacity=50;fontFamily=Times New Roman;fontSize=14;align=left;spacingLeft=4;fontColor=#333333;whiteSpace=wrap;html=1;" vertex="1" parent="46">
                    <mxGeometry x="40" width="240" height="40" as="geometry">
                        <mxRectangle width="240" height="40" as="alternateBounds"/>
                    </mxGeometry>
                </mxCell>
                <mxCell id="48" value="unité non présélectionnée" style="shape=partialRectangle;connectable=0;overflow=hidden;fillColor=#f5f5f5;top=0;left=0;bottom=0;right=0;pointerEvents=1;fontFamily=Times New Roman;fontSize=14;strokeColor=#666666;opacity=50;align=left;spacingLeft=4;fontColor=#333333;whiteSpace=wrap;html=1;" vertex="1" parent="46">
                    <mxGeometry x="280" width="280" height="40" as="geometry">
                        <mxRectangle width="280" height="40" as="alternateBounds"/>
                    </mxGeometry>
                </mxCell>
                <mxCell id="49" value="Préselectionne tout son régiment" style="shape=partialRectangle;connectable=0;overflow=hidden;fillColor=#f5f5f5;top=0;left=0;bottom=0;right=0;pointerEvents=1;fontFamily=Times New Roman;fontSize=14;strokeColor=#666666;opacity=50;align=left;spacingLeft=4;fontColor=#333333;whiteSpace=wrap;html=1;" vertex="1" parent="46">
                    <mxGeometry x="560" width="200" height="40" as="geometry">
                        <mxRectangle width="200" height="40" as="alternateBounds"/>
                    </mxGeometry>
                </mxCell>
                <mxCell id="50" style="shape=partialRectangle;collapsible=0;dropTarget=0;pointerEvents=0;fillColor=none;top=0;left=0;bottom=0;right=0;points=[[0,0.5],[1,0.5]];portConstraint=eastwest;" vertex="1" parent="41">
                    <mxGeometry y="80" width="760" height="40" as="geometry"/>
                </mxCell>
                <mxCell id="128" value="2" style="shape=partialRectangle;connectable=0;overflow=hidden;fillColor=#f5f5f5;top=0;left=0;bottom=0;right=0;pointerEvents=1;strokeColor=#666666;opacity=50;fontFamily=Times New Roman;fontSize=14;align=center;spacingLeft=0;fontColor=#333333;fontStyle=0;whiteSpace=wrap;html=1;" vertex="1" parent="50">
                    <mxGeometry width="40" height="40" as="geometry">
                        <mxRectangle width="40" height="40" as="alternateBounds"/>
                    </mxGeometry>
                </mxCell>
                <mxCell id="51" value="Le curseur n'est plus au dessus d'une unité" style="shape=partialRectangle;connectable=0;overflow=hidden;fillColor=#f5f5f5;top=0;left=0;bottom=0;right=0;pointerEvents=1;strokeColor=#666666;opacity=50;fontFamily=Times New Roman;fontSize=14;align=left;spacingLeft=4;fontColor=#333333;whiteSpace=wrap;html=1;" vertex="1" parent="50">
                    <mxGeometry x="40" width="240" height="40" as="geometry">
                        <mxRectangle width="240" height="40" as="alternateBounds"/>
                    </mxGeometry>
                </mxCell>
                <mxCell id="52" value="unité préselectionnée" style="shape=partialRectangle;connectable=0;overflow=hidden;fillColor=#f5f5f5;top=0;left=0;bottom=0;right=0;pointerEvents=1;fontFamily=Times New Roman;fontSize=14;strokeColor=#666666;opacity=50;align=left;spacingLeft=4;fontColor=#333333;whiteSpace=wrap;html=1;" vertex="1" parent="50">
                    <mxGeometry x="280" width="280" height="40" as="geometry">
                        <mxRectangle width="280" height="40" as="alternateBounds"/>
                    </mxGeometry>
                </mxCell>
                <mxCell id="53" value="Dépéselectionne l'unité" style="shape=partialRectangle;connectable=0;overflow=hidden;fillColor=#f5f5f5;top=0;left=0;bottom=0;right=0;pointerEvents=1;fontFamily=Times New Roman;fontSize=14;strokeColor=#666666;opacity=50;align=left;spacingLeft=4;fontColor=#333333;whiteSpace=wrap;html=1;" vertex="1" parent="50">
                    <mxGeometry x="560" width="200" height="40" as="geometry">
                        <mxRectangle width="200" height="40" as="alternateBounds"/>
                    </mxGeometry>
                </mxCell>
                <mxCell id="54" style="shape=partialRectangle;collapsible=0;dropTarget=0;pointerEvents=0;fillColor=none;top=0;left=0;bottom=0;right=0;points=[[0,0.5],[1,0.5]];portConstraint=eastwest;" vertex="1" parent="41">
                    <mxGeometry y="120" width="760" height="40" as="geometry"/>
                </mxCell>
                <mxCell id="129" value="3" style="shape=partialRectangle;connectable=0;overflow=hidden;fillColor=#f5f5f5;top=0;left=0;bottom=0;right=0;pointerEvents=1;strokeColor=#666666;opacity=50;fontFamily=Times New Roman;fontSize=14;align=center;spacingLeft=0;fontColor=#333333;fontStyle=0;whiteSpace=wrap;html=1;" vertex="1" parent="54">
                    <mxGeometry width="40" height="40" as="geometry">
                        <mxRectangle width="40" height="40" as="alternateBounds"/>
                    </mxGeometry>
                </mxCell>
                <mxCell id="55" value="Je maintiens le clique droit de la souris enfoncé&amp;nbsp;+ je déplace ma souris" style="shape=partialRectangle;connectable=0;overflow=hidden;fillColor=#f5f5f5;top=0;left=0;bottom=0;right=0;pointerEvents=1;strokeColor=#666666;opacity=50;fontFamily=Times New Roman;fontSize=14;align=left;spacingLeft=4;fontColor=#333333;whiteSpace=wrap;html=1;" vertex="1" parent="54">
                    <mxGeometry x="40" width="240" height="40" as="geometry">
                        <mxRectangle width="240" height="40" as="alternateBounds"/>
                    </mxGeometry>
                </mxCell>
                <mxCell id="56" value="" style="shape=partialRectangle;connectable=0;overflow=hidden;fillColor=#f5f5f5;top=0;left=0;bottom=0;right=0;pointerEvents=1;fontFamily=Times New Roman;fontSize=14;strokeColor=#666666;opacity=50;align=left;spacingLeft=4;fontColor=#333333;whiteSpace=wrap;html=1;" vertex="1" parent="54">
                    <mxGeometry x="280" width="280" height="40" as="geometry">
                        <mxRectangle width="280" height="40" as="alternateBounds"/>
                    </mxGeometry>
                </mxCell>
                <mxCell id="57" value="Dessine un carré à l'écran" style="shape=partialRectangle;connectable=0;overflow=hidden;fillColor=#f5f5f5;top=0;left=0;bottom=0;right=0;pointerEvents=1;fontFamily=Times New Roman;fontSize=14;strokeColor=#666666;opacity=50;align=left;spacingLeft=4;fontColor=#333333;whiteSpace=wrap;html=1;" vertex="1" parent="54">
                    <mxGeometry x="560" width="200" height="40" as="geometry">
                        <mxRectangle width="200" height="40" as="alternateBounds"/>
                    </mxGeometry>
                </mxCell>
                <mxCell id="58" style="shape=partialRectangle;collapsible=0;dropTarget=0;pointerEvents=0;fillColor=none;top=0;left=0;bottom=0;right=0;points=[[0,0.5],[1,0.5]];portConstraint=eastwest;" vertex="1" parent="41">
                    <mxGeometry y="160" width="760" height="40" as="geometry"/>
                </mxCell>
                <mxCell id="130" value="4" style="shape=partialRectangle;connectable=0;overflow=hidden;fillColor=#f5f5f5;top=0;left=0;bottom=0;right=0;pointerEvents=1;strokeColor=#666666;opacity=50;fontFamily=Times New Roman;fontSize=14;align=center;spacingLeft=0;fontColor=#333333;fontStyle=0;whiteSpace=wrap;html=1;" vertex="1" parent="58">
                    <mxGeometry width="40" height="40" as="geometry">
                        <mxRectangle width="40" height="40" as="alternateBounds"/>
                    </mxGeometry>
                </mxCell>
                <mxCell id="59" value="Je maintiens le clique droit de la souris enfoncé + Je déplace ma souris" style="shape=partialRectangle;connectable=0;overflow=hidden;fillColor=#f5f5f5;top=0;left=0;bottom=0;right=0;pointerEvents=1;strokeColor=#666666;opacity=50;fontFamily=Times New Roman;fontSize=14;align=left;spacingLeft=4;fontColor=#333333;whiteSpace=wrap;html=1;" vertex="1" parent="58">
                    <mxGeometry x="40" width="240" height="40" as="geometry">
                        <mxRectangle width="240" height="40" as="alternateBounds"/>
                    </mxGeometry>
                </mxCell>
                <mxCell id="60" value="Passe au dessus d'une unité" style="shape=partialRectangle;connectable=0;overflow=hidden;fillColor=#f5f5f5;top=0;left=0;bottom=0;right=0;pointerEvents=1;fontFamily=Times New Roman;fontSize=14;strokeColor=#666666;opacity=50;align=left;spacingLeft=4;fontColor=#333333;whiteSpace=wrap;html=1;" vertex="1" parent="58">
                    <mxGeometry x="280" width="280" height="40" as="geometry">
                        <mxRectangle width="280" height="40" as="alternateBounds"/>
                    </mxGeometry>
                </mxCell>
                <mxCell id="61" value="Préselectionne tout son régiment" style="shape=partialRectangle;connectable=0;overflow=hidden;fillColor=#f5f5f5;top=0;left=0;bottom=0;right=0;pointerEvents=1;fontFamily=Times New Roman;fontSize=14;strokeColor=#666666;opacity=50;align=left;spacingLeft=4;fontColor=#333333;whiteSpace=wrap;html=1;" vertex="1" parent="58">
                    <mxGeometry x="560" width="200" height="40" as="geometry">
                        <mxRectangle width="200" height="40" as="alternateBounds"/>
                    </mxGeometry>
                </mxCell>
                <mxCell id="62" style="shape=partialRectangle;collapsible=0;dropTarget=0;pointerEvents=0;fillColor=none;top=0;left=0;bottom=0;right=0;points=[[0,0.5],[1,0.5]];portConstraint=eastwest;" vertex="1" parent="41">
                    <mxGeometry y="200" width="760" height="40" as="geometry"/>
                </mxCell>
                <mxCell id="131" value="5" style="shape=partialRectangle;connectable=0;overflow=hidden;fillColor=#f5f5f5;top=0;left=0;bottom=0;right=0;pointerEvents=1;strokeColor=#666666;opacity=50;fontFamily=Times New Roman;fontSize=14;align=center;spacingLeft=0;fontColor=#333333;fontStyle=0;whiteSpace=wrap;html=1;" vertex="1" parent="62">
                    <mxGeometry width="40" height="40" as="geometry">
                        <mxRectangle width="40" height="40" as="alternateBounds"/>
                    </mxGeometry>
                </mxCell>
                <mxCell id="63" value="Je maintiens le clique droit de la souris enfoncé&amp;nbsp;+ Je déplace ma souris" style="shape=partialRectangle;connectable=0;overflow=hidden;fillColor=#f5f5f5;top=0;left=0;bottom=0;right=0;pointerEvents=1;strokeColor=#666666;opacity=50;fontFamily=Times New Roman;fontSize=14;align=left;spacingLeft=4;fontColor=#333333;whiteSpace=wrap;html=1;" vertex="1" parent="62">
                    <mxGeometry x="40" width="240" height="40" as="geometry">
                        <mxRectangle width="240" height="40" as="alternateBounds"/>
                    </mxGeometry>
                </mxCell>
                <mxCell id="64" value="Passe au dessus de plusieurs unités ayant appartenant à des régiments différents" style="shape=partialRectangle;connectable=0;overflow=hidden;fillColor=#f5f5f5;top=0;left=0;bottom=0;right=0;pointerEvents=1;fontFamily=Times New Roman;fontSize=14;strokeColor=#666666;opacity=50;align=left;spacingLeft=4;fontColor=#333333;whiteSpace=wrap;html=1;" vertex="1" parent="62">
                    <mxGeometry x="280" width="280" height="40" as="geometry">
                        <mxRectangle width="280" height="40" as="alternateBounds"/>
                    </mxGeometry>
                </mxCell>
                <mxCell id="65" value="Préselectionne le régiment de chaque unité" style="shape=partialRectangle;connectable=0;overflow=hidden;fillColor=#f5f5f5;top=0;left=0;bottom=0;right=0;pointerEvents=1;fontFamily=Times New Roman;fontSize=14;strokeColor=#666666;opacity=50;align=left;spacingLeft=4;fontColor=#333333;whiteSpace=wrap;html=1;" vertex="1" parent="62">
                    <mxGeometry x="560" width="200" height="40" as="geometry">
                        <mxRectangle width="200" height="40" as="alternateBounds"/>
                    </mxGeometry>
                </mxCell>
                <mxCell id="78" value="Tests d&amp;#39;Acceptations : Présélection Régiment" style="rounded=0;fontFamily=Times New Roman;fontSize=24;fontStyle=1;labelBorderColor=none;labelBackgroundColor=none;fillColor=#eeeeee;strokeColor=#36393d;verticalAlign=top;whiteSpace=wrap;html=1;" vertex="1" parent="2">
                    <mxGeometry x="40" y="320" width="760" height="40" as="geometry"/>
                </mxCell>
                <mxCell id="79" value="" style="shape=table;startSize=0;container=1;collapsible=0;childLayout=tableLayout;fontFamily=Times New Roman;fontSize=12;opacity=20;align=center;whiteSpace=wrap;html=1;" vertex="1" parent="2">
                    <mxGeometry x="40" y="680" width="760" height="120" as="geometry"/>
                </mxCell>
                <mxCell id="80" value="" style="shape=partialRectangle;collapsible=0;dropTarget=0;pointerEvents=0;fillColor=none;top=0;left=0;bottom=0;right=0;points=[[0,0.5],[1,0.5]];portConstraint=eastwest;" vertex="1" parent="79">
                    <mxGeometry width="760" height="40" as="geometry"/>
                </mxCell>
                <mxCell id="117" value="Ordre" style="shape=partialRectangle;connectable=0;overflow=hidden;fillColor=#f5f5f5;top=0;left=0;bottom=0;right=0;pointerEvents=1;strokeColor=#424242;fontFamily=Times New Roman;fontSize=14;fontStyle=1;fontColor=#333333;whiteSpace=wrap;html=1;" vertex="1" parent="80">
                    <mxGeometry width="40" height="40" as="geometry">
                        <mxRectangle width="40" height="40" as="alternateBounds"/>
                    </mxGeometry>
                </mxCell>
                <mxCell id="81" value="Contexte" style="shape=partialRectangle;connectable=0;overflow=hidden;fillColor=#f5f5f5;top=0;left=0;bottom=0;right=0;pointerEvents=1;strokeColor=#424242;fontFamily=Times New Roman;fontSize=14;fontStyle=1;fontColor=#333333;whiteSpace=wrap;html=1;" vertex="1" parent="80">
                    <mxGeometry x="40" width="200" height="40" as="geometry">
                        <mxRectangle width="200" height="40" as="alternateBounds"/>
                    </mxGeometry>
                </mxCell>
                <mxCell id="82" value="Condition(s)" style="shape=partialRectangle;connectable=0;overflow=hidden;fillColor=#f5f5f5;top=0;left=0;bottom=0;right=0;pointerEvents=1;fontFamily=Times New Roman;fontSize=14;fontStyle=1;strokeColor=#424242;fontColor=#333333;whiteSpace=wrap;html=1;" vertex="1" parent="80">
                    <mxGeometry x="240" width="270" height="40" as="geometry">
                        <mxRectangle width="270" height="40" as="alternateBounds"/>
                    </mxGeometry>
                </mxCell>
                <mxCell id="83" value="Resultat" style="shape=partialRectangle;connectable=0;overflow=hidden;fillColor=#f5f5f5;top=0;left=0;bottom=0;right=0;pointerEvents=1;fontFamily=Times New Roman;fontSize=14;fontStyle=1;strokeColor=#424242;fontColor=#333333;whiteSpace=wrap;html=1;" vertex="1" parent="80">
                    <mxGeometry x="510" width="250" height="40" as="geometry">
                        <mxRectangle width="250" height="40" as="alternateBounds"/>
                    </mxGeometry>
                </mxCell>
                <mxCell id="88" style="shape=partialRectangle;collapsible=0;dropTarget=0;pointerEvents=0;fillColor=none;top=0;left=0;bottom=0;right=0;points=[[0,0.5],[1,0.5]];portConstraint=eastwest;" vertex="1" parent="79">
                    <mxGeometry y="40" width="760" height="40" as="geometry"/>
                </mxCell>
                <mxCell id="119" value="1" style="shape=partialRectangle;connectable=0;overflow=hidden;fillColor=#f5f5f5;top=0;left=0;bottom=0;right=0;pointerEvents=1;strokeColor=#666666;opacity=50;fontFamily=Times New Roman;fontSize=14;align=center;spacingLeft=0;fontColor=#333333;fontStyle=0;whiteSpace=wrap;html=1;" vertex="1" parent="88">
                    <mxGeometry width="40" height="40" as="geometry">
                        <mxRectangle width="40" height="40" as="alternateBounds"/>
                    </mxGeometry>
                </mxCell>
                <mxCell id="89" value="Je relâche le clique gauche de la souris" style="shape=partialRectangle;connectable=0;overflow=hidden;fillColor=#f5f5f5;top=0;left=0;bottom=0;right=0;pointerEvents=1;strokeColor=#666666;opacity=50;fontFamily=Times New Roman;fontSize=14;align=left;spacingLeft=4;fontColor=#333333;whiteSpace=wrap;html=1;" vertex="1" parent="88">
                    <mxGeometry x="40" width="200" height="40" as="geometry">
                        <mxRectangle width="200" height="40" as="alternateBounds"/>
                    </mxGeometry>
                </mxCell>
                <mxCell id="90" value="Un ou plusieurs régiments sont séléctionnées &lt;br style=&quot;font-size: 14px;&quot;&gt;+ Touche Ctrl non enfoncé" style="shape=partialRectangle;connectable=0;overflow=hidden;fillColor=#f5f5f5;top=0;left=0;bottom=0;right=0;pointerEvents=1;fontFamily=Times New Roman;fontSize=14;strokeColor=#666666;opacity=50;align=left;spacingLeft=4;fontColor=#333333;whiteSpace=wrap;html=1;" vertex="1" parent="88">
                    <mxGeometry x="240" width="270" height="40" as="geometry">
                        <mxRectangle width="270" height="40" as="alternateBounds"/>
                    </mxGeometry>
                </mxCell>
                <mxCell id="91" value="Désélectionne tous les régiments précédemment sélectionnés" style="shape=partialRectangle;connectable=0;overflow=hidden;fillColor=#f5f5f5;top=0;left=0;bottom=0;right=0;pointerEvents=1;fontFamily=Times New Roman;fontSize=14;strokeColor=#666666;opacity=50;align=left;spacingLeft=4;fontColor=#333333;whiteSpace=wrap;html=1;" vertex="1" parent="88">
                    <mxGeometry x="510" width="250" height="40" as="geometry">
                        <mxRectangle width="250" height="40" as="alternateBounds"/>
                    </mxGeometry>
                </mxCell>
                <mxCell id="84" style="shape=partialRectangle;collapsible=0;dropTarget=0;pointerEvents=0;fillColor=none;top=0;left=0;bottom=0;right=0;points=[[0,0.5],[1,0.5]];portConstraint=eastwest;" vertex="1" parent="79">
                    <mxGeometry y="80" width="760" height="40" as="geometry"/>
                </mxCell>
                <mxCell id="118" value="2" style="shape=partialRectangle;connectable=0;overflow=hidden;fillColor=#f5f5f5;top=0;left=0;bottom=0;right=0;pointerEvents=1;strokeColor=#666666;opacity=50;fontFamily=Times New Roman;fontSize=14;align=center;spacingLeft=0;fontColor=#333333;fontStyle=0;whiteSpace=wrap;html=1;" vertex="1" parent="84">
                    <mxGeometry width="40" height="40" as="geometry">
                        <mxRectangle width="40" height="40" as="alternateBounds"/>
                    </mxGeometry>
                </mxCell>
                <mxCell id="85" value="Je relâche le clique gauche de la souris" style="shape=partialRectangle;connectable=0;overflow=hidden;fillColor=#f5f5f5;top=0;left=0;bottom=0;right=0;pointerEvents=1;strokeColor=#666666;opacity=50;fontFamily=Times New Roman;fontSize=14;align=left;spacingLeft=4;fontColor=#333333;whiteSpace=wrap;html=1;" vertex="1" parent="84">
                    <mxGeometry x="40" width="200" height="40" as="geometry">
                        <mxRectangle width="200" height="40" as="alternateBounds"/>
                    </mxGeometry>
                </mxCell>
                <mxCell id="86" value="Un ou plusieurs régiments sont séléctionnées &lt;br style=&quot;font-size: 14px;&quot;&gt;+ Touche Ctrl enfoncé" style="shape=partialRectangle;connectable=0;overflow=hidden;fillColor=#f5f5f5;top=0;left=0;bottom=0;right=0;pointerEvents=1;fontFamily=Times New Roman;fontSize=14;strokeColor=#666666;opacity=50;align=left;spacingLeft=4;fontColor=#333333;whiteSpace=wrap;html=1;" vertex="1" parent="84">
                    <mxGeometry x="240" width="270" height="40" as="geometry">
                        <mxRectangle width="270" height="40" as="alternateBounds"/>
                    </mxGeometry>
                </mxCell>
                <mxCell id="87" value="Sélectionne + dépréselectionne tous les régiments&amp;nbsp;" style="shape=partialRectangle;connectable=0;overflow=hidden;fillColor=#f5f5f5;top=0;left=0;bottom=0;right=0;pointerEvents=1;fontFamily=Times New Roman;fontSize=14;strokeColor=#666666;opacity=50;align=left;spacingLeft=4;fontColor=#333333;whiteSpace=wrap;html=1;" vertex="1" parent="84">
                    <mxGeometry x="510" width="250" height="40" as="geometry">
                        <mxRectangle width="250" height="40" as="alternateBounds"/>
                    </mxGeometry>
                </mxCell>
                <mxCell id="116" value="Tests d&amp;#39;Acceptations : Sélection Régiment" style="rounded=0;fontFamily=Times New Roman;fontSize=24;fontStyle=1;labelBorderColor=none;labelBackgroundColor=none;fillColor=#eeeeee;strokeColor=#36393d;verticalAlign=top;whiteSpace=wrap;html=1;" vertex="1" parent="2">
                    <mxGeometry x="40" y="640" width="760" height="40" as="geometry"/>
                </mxCell>
            </root>
        </mxGraphModel>
    </diagram>
</mxfile>